<svg id="clock_cloud_box_image" xmlns="http://www.w3.org/2000/svg" width="702" height="76" viewBox="0 0 702 76">
  <defs>
    <style>
      .cls-1 {
        fill: #6d6d6d;
        fill-rule: evenodd;
      }
    </style>
  </defs>
  <path class="cls-1" d="M739.19,1179.98a1.913,1.913,0,0,1-1.107-.34,15.805,15.805,0,0,1-4.307-21.81A15.636,15.636,0,0,1,748,1150.85a2.024,2.024,0,0,1-.02-0.81,24.473,24.473,0,0,1,10.086-15.86,24.113,24.113,0,0,1,18.269-4.03,24.481,24.481,0,0,1,18.6,15.59,1.9,1.9,0,0,1,.9-0.17,19.212,19.212,0,0,1,15.061,8.26,18.167,18.167,0,0,1,3.214,13.86,19.061,19.061,0,0,1-7.948,11.85,2.034,2.034,0,0,1-1.146.36l-65.815.08h0Zm7.625-25.16a12.161,12.161,0,0,0-2.318.23,11.618,11.618,0,0,0-7.4,5,11.783,11.783,0,0,0,2.723,15.91l64.535-.07a14.916,14.916,0,0,0,5.83-8.95,14.01,14.01,0,0,0-2.56-10.8,15.264,15.264,0,0,0-11.607-6.54,24.655,24.655,0,0,1,.456,4.6,2,2,0,0,1-1.983,2.02h-0.011a2,2,0,0,1-2-2,20.538,20.538,0,0,0-16.852-20.12,20.167,20.167,0,0,0-15.286,3.38,20.448,20.448,0,0,0-8.44,13.27,1.949,1.949,0,0,1-.336.8,15.76,15.76,0,0,1,3.863,1.89,2.023,2.023,0,0,1,.554,2.79,1.984,1.984,0,0,1-2.767.55A11.469,11.469,0,0,0,746.815,1154.82Zm38.3-2.67a2.006,2.006,0,0,1-1.99-1.91,8.823,8.823,0,0,0-9.208-8.38,2.008,2.008,0,0,1-.2-4.01,12.793,12.793,0,0,1,13.393,12.19,1.991,1.991,0,0,1-1.891,2.1A0.36,0.36,0,0,1,785.114,1152.15Z" transform="translate(-424 -1117)"/>
  <path class="cls-1" d="M1088,1193h-0.03a1.971,1.971,0,0,1-.9-0.23l-35.96-17.96a1.991,1.991,0,0,1-1.1-1.79v-35.93a1.985,1.985,0,0,1,.18-0.88,0.594,0.594,0,0,1,.04-0.08,1.988,1.988,0,0,1,.9-0.87l17.96-8.98a0.142,0.142,0,0,0,.04-0.02l17.98-8.98a1.991,1.991,0,0,1,1.78,0l35.98,17.97a2.012,2.012,0,0,1,.9.88,0.594,0.594,0,0,1,.04.08,1.985,1.985,0,0,1,.18.88v35.93a1.991,1.991,0,0,1-1.1,1.79l-35.96,17.96a1.971,1.971,0,0,1-.9.23H1088Zm2-36.73v31.5l31.99-15.99v-31.5l-15.08,7.54a0.147,0.147,0,0,1-.04.02Zm-35.99,15.51,31.99,15.99v-31.5l-31.99-15.99v31.5Zm2.47-34.73L1088,1152.8l13.53-6.76L1070,1130.29Zm17.99-8.99,31.53,15.75,13.52-6.76L1088,1121.3Zm4.53,46.96a2.005,2.005,0,0,1-.89-0.21l-18-9a1.985,1.985,0,0,1-1.11-1.78v-9a2.006,2.006,0,0,1,2.9-1.78l18,8.99a2.009,2.009,0,0,1,1.1,1.79v8.99a2.009,2.009,0,0,1-.95,1.7A1.968,1.968,0,0,1,1079,1175.02Zm-16-12.23,14,7v-4.53l-14-6.99v4.52Z" transform="translate(-424 -1117)"/>
  <path class="cls-1" d="M462,1193a38,38,0,1,1,38-38A38.045,38.045,0,0,1,462,1193Zm0-72a34,34,0,1,0,34,34A34.037,34.037,0,0,0,462,1121Zm0,63a29,29,0,1,1,29-29A29.034,29.034,0,0,1,462,1184Zm0-54a25,25,0,1,0,25,25A25.025,25.025,0,0,0,462,1130Zm9,27h-9a2,2,0,0,1-2-2v-9a2,2,0,0,1,4,0v7h7A2,2,0,0,1,471,1157Z" transform="translate(-424 -1117)"/>
  <path id="Rounded_Rectangle_2" data-name="Rounded Rectangle 2" class="cls-1" d="M546.5,1154h137a1.5,1.5,0,0,1,0,3h-137A1.5,1.5,0,0,1,546.5,1154Z" transform="translate(-424 -1117)"/>
  <path id="Rounded_Rectangle_2_copy" data-name="Rounded Rectangle 2 copy" class="cls-1" d="M867.5,1154h137a1.5,1.5,0,0,1,0,3h-137A1.5,1.5,0,0,1,867.5,1154Z" transform="translate(-424 -1117)"/>
</svg>
