<svg xmlns="http://www.w3.org/2000/svg" xmlns:xlink="http://www.w3.org/1999/xlink" width="19.688" height="21.781" viewBox="0 0 19.688 21.781">
  <defs>
    <style>
      .cls-1 {
        fill: #fff;
        fill-rule: evenodd;
        filter: url(#filter);
      }
    </style>
    <filter id="filter" x="683" y="45.219" width="19.688" height="21.781" filterUnits="userSpaceOnUse">
      <feOffset result="offset" dy="1" in="SourceAlpha"/>
      <feGaussianBlur result="blur"/>
      <feFlood result="flood" flood-color="#fff"/>
      <feComposite result="composite" operator="in" in2="blur"/>
      <feBlend result="blend" in="SourceGraphic"/>
      <feFlood result="flood-2" flood-color="#701dbb"/>
      <feComposite result="composite-2" operator="in" in2="SourceGraphic"/>
      <feBlend result="blend-2" in2="blend"/>
    </filter>
  </defs>
  <path class="cls-1" d="M692.846,65.213a10.006,10.006,0,1,1,9.835-10A9.931,9.931,0,0,1,692.846,65.213Zm4.134-4.606a10.3,10.3,0,0,1-2.317,3.361,8.727,8.727,0,0,0,4.115-2.154A12.142,12.142,0,0,0,696.98,60.607Zm-10.089,1.185a8.731,8.731,0,0,0,4.139,2.176,10.331,10.331,0,0,1-2.363-3.466A10.661,10.661,0,0,0,686.891,61.793Zm6.473-2.346v4.268a9,9,0,0,0,2.681-3.563A8.994,8.994,0,0,0,693.364,59.447Zm-3.765.59a9.019,9.019,0,0,0,2.73,3.678v-4.3A7.663,7.663,0,0,0,689.6,60.037Zm7.746-.384a13.67,13.67,0,0,1,2.15,1.412,9,9,0,0,0,2.135-5.33h-3.616A13.706,13.706,0,0,1,697.345,59.653Zm-13.283-3.918a8.991,8.991,0,0,0,2.108,5.3A11.605,11.605,0,0,1,688.3,59.5a13.783,13.783,0,0,1-.621-3.769h-3.616Zm9.3,2.68a10.213,10.213,0,0,1,3.036.788,12.688,12.688,0,0,0,.578-3.468h-3.614v2.68Zm-4.65-2.68a12.827,12.827,0,0,0,.529,3.313,8.542,8.542,0,0,1,3.086-.667V55.735h-3.615Zm9.3-1.053h3.616a8.991,8.991,0,0,0-2.108-5.3,11.616,11.616,0,0,1-2.128,1.529A13.83,13.83,0,0,1,698.014,54.682Zm-4.65,0h3.614a12.781,12.781,0,0,0-.529-3.312,8.541,8.541,0,0,1-3.085.667v2.645Zm-4.65,0h3.615V52a10.209,10.209,0,0,1-3.037-.787A12.722,12.722,0,0,0,688.714,54.682Zm-4.652,0h3.616a13.7,13.7,0,0,1,.669-3.918,13.745,13.745,0,0,1-2.15-1.413A8.995,8.995,0,0,0,684.062,54.682Zm9.3-7.979V51a7.675,7.675,0,0,0,2.73-.62A9.04,9.04,0,0,0,693.364,46.7Zm-3.717,3.563a9.009,9.009,0,0,0,2.682.7V46.7A9,9,0,0,0,689.647,50.266Zm5.016-3.817a10.329,10.329,0,0,1,2.362,3.467,10.745,10.745,0,0,0,1.777-1.291A8.737,8.737,0,0,0,694.663,46.449ZM686.914,48.6a12.118,12.118,0,0,0,1.8,1.207,10.3,10.3,0,0,1,2.318-3.361A8.735,8.735,0,0,0,686.914,48.6Z" transform="translate(-683 -45.219)"/>
</svg>
