<svg xmlns="http://www.w3.org/2000/svg" xmlns:xlink="http://www.w3.org/1999/xlink" width="19.656" height="18.75" viewBox="0 0 19.656 18.75">
  <defs>
    <style>
      .cls-1 {
        fill: #fff;
        fill-rule: evenodd;
        filter: url(#filter);
      }
    </style>
    <filter id="filter" x="811.625" y="46.25" width="19.656" height="18.75" filterUnits="userSpaceOnUse">
      <feOffset result="offset" dy="1" in="SourceAlpha"/>
      <feGaussianBlur result="blur"/>
      <feFlood result="flood" flood-color="#fff"/>
      <feComposite result="composite" operator="in" in2="blur"/>
      <feBlend result="blend" in="SourceGraphic"/>
      <feFlood result="flood-2" flood-color="#701dbb"/>
      <feComposite result="composite-2" operator="in" in2="SourceGraphic"/>
      <feBlend result="blend-2" in2="blend"/>
    </filter>
  </defs>
  <path class="cls-1" d="M816.887,63.893a0.518,0.518,0,0,1-.169-0.029,0.525,0.525,0,0,1-.348-0.483l-0.093-4.507-4.37-2.21-0.046-.025a0.552,0.552,0,0,1-.05-0.036,0.517,0.517,0,0,1-.178-0.275,0.382,0.382,0,0,1-.011-0.058,0.525,0.525,0,0,1,.077-0.36h0l0.012-.018h0a0.511,0.511,0,0,1,.2-0.168l18.6-9.406a0.512,0.512,0,0,1,.35-0.049,0.509,0.509,0,0,1,.163.066h0a0.524,0.524,0,0,1,.216.272,0.458,0.458,0,0,1,.023.1,0.523,0.523,0,0,1,0,.185,0.539,0.539,0,0,1-.036.109L824.25,63.451a0.538,0.538,0,0,1-.093.152h0l-0.019.021h0a0.514,0.514,0,0,1-.345.154H823.77a0.512,0.512,0,0,1-.3-0.1l-3.94-2.748L817.287,63.7A0.515,0.515,0,0,1,816.887,63.893Zm3.311-3.764,3.03,2.113-0.136-5.553Zm-2.888-1.341,0.065,3.156,1.657-2.043,0-.006h0l0,0,7.407-8.806L822.275,54.6l-0.024.02Zm6.787-3.294,0.131,5.352,4.7-11.1Zm-10.384.913,3,1.519,3.319-2.8ZM827,49.261l-11.178,5.654,5.883-1.19Z" transform="translate(-811.625 -46.25)"/>
</svg>
